<svg width="444" height="370" viewBox="0 0 444 370" fill="none" xmlns="http://www.w3.org/2000/svg">
<path opacity="0.1" d="M144.236 13.1603C157.185 1.62531 177.509 -0.739362 196.011 0.179001C254.12 3.07162 306.573 31.146 351.946 62.9072C368.374 74.4022 384.545 86.7935 395.205 102.627C416.926 134.859 410.472 179.508 380.294 206.061C370.023 215.094 357.576 222.032 344.796 228.159C322.074 239.073 297.556 247.835 271.767 250.342C253.38 252.117 234.762 250.675 216.477 248.195C165.398 241.247 115.268 225.914 73.2327 199.686C54.8013 188.182 37.4294 173.878 29.8316 155.276C22.2339 136.673 27.0966 113.071 45.9181 102.037C53.702 97.4811 63.0108 95.4225 72.1201 93.4882C85.5336 90.6444 99.1598 87.8405 111.261 82.0597C123.766 76.0881 138.567 64.5398 136.085 51.3189C133.443 37.1531 131.306 24.6953 144.236 13.1603Z" fill="#C3232A"/>
<path d="M304.312 296.757C304.312 296.757 315.42 277.063 332.145 271.389C339.176 269.053 345.261 264.498 349.486 258.408C351.469 255.501 353.181 252.418 354.601 249.197" stroke="#535461" stroke-width="2" stroke-miterlimit="10"/>
<path d="M365.125 245.555C363.219 247.41 354.34 249.322 354.34 249.322C354.34 249.322 356.516 240.498 358.422 238.648C359.338 237.758 360.568 237.269 361.844 237.288C363.12 237.306 364.336 237.831 365.224 238.748C366.113 239.664 366.602 240.895 366.583 242.172C366.565 243.449 366.04 244.666 365.125 245.555Z" fill="#C3232A"/>
<path d="M360.102 261.52C357.496 262.039 349.021 258.818 349.021 258.818C349.021 258.818 355.643 252.607 358.245 252.075C359.497 251.826 360.796 252.085 361.856 252.794C362.917 253.504 363.653 254.607 363.901 255.859C364.15 257.112 363.891 258.412 363.182 259.473C362.473 260.535 361.372 261.271 360.12 261.52H360.102Z" fill="#C3232A"/>
<path d="M341.818 278.796C339.305 277.909 333.6 270.855 333.6 270.855C333.6 270.855 342.465 268.832 344.965 269.702C345.575 269.898 346.139 270.214 346.625 270.632C347.111 271.049 347.509 271.56 347.795 272.134C348.081 272.707 348.25 273.332 348.291 273.972C348.333 274.612 348.246 275.253 348.037 275.859C347.827 276.465 347.499 277.023 347.071 277.5C346.643 277.977 346.124 278.363 345.545 278.637C344.965 278.911 344.337 279.066 343.697 279.093C343.057 279.12 342.418 279.02 341.818 278.796Z" fill="#C3232A"/>
<path d="M325.039 288.753C322.419 288.309 315.602 282.315 315.602 282.315C315.602 282.315 323.984 278.819 326.604 279.254C327.232 279.352 327.834 279.573 328.376 279.905C328.918 280.237 329.389 280.673 329.761 281.188C330.134 281.703 330.401 282.287 330.547 282.906C330.693 283.525 330.714 284.166 330.611 284.794C330.508 285.421 330.281 286.022 329.944 286.561C329.608 287.101 329.168 287.568 328.65 287.936C328.131 288.304 327.546 288.566 326.926 288.706C326.306 288.846 325.665 288.862 325.039 288.753Z" fill="#C3232A"/>
<path d="M341.6 251.924C341.6 254.586 346.405 262.293 346.405 262.293C346.405 262.293 351.219 254.586 351.219 251.929C351.219 250.652 350.712 249.428 349.81 248.525C348.908 247.622 347.685 247.115 346.409 247.115C345.134 247.115 343.91 247.622 343.008 248.525C342.106 249.428 341.6 250.652 341.6 251.929V251.924Z" fill="#C3232A"/>
<path d="M322.126 263.815C322.924 266.352 329.813 272.271 329.813 272.271C329.813 272.271 332.1 263.473 331.307 260.935C330.925 259.717 330.076 258.7 328.945 258.108C327.815 257.517 326.495 257.399 325.278 257.781C324.061 258.163 323.045 259.013 322.454 260.144C321.863 261.276 321.745 262.596 322.126 263.815Z" fill="#C3232A"/>
<path d="M304.786 277.967C305.141 280.602 310.934 287.603 310.934 287.603C310.934 287.603 314.676 279.32 314.321 276.685C314.151 275.42 313.486 274.273 312.472 273.499C311.457 272.724 310.177 272.385 308.913 272.555C307.649 272.725 306.503 273.39 305.729 274.405C304.955 275.421 304.616 276.702 304.786 277.967Z" fill="#C3232A"/>
<path opacity="0.25" d="M365.125 245.555C363.219 247.41 354.34 249.322 354.34 249.322C354.34 249.322 356.516 240.498 358.422 238.648C359.338 237.758 360.568 237.269 361.844 237.288C363.12 237.306 364.336 237.831 365.224 238.748C366.113 239.664 366.602 240.895 366.583 242.172C366.565 243.449 366.04 244.666 365.125 245.555Z" fill="black"/>
<path opacity="0.25" d="M360.102 261.52C357.496 262.039 349.021 258.818 349.021 258.818C349.021 258.818 355.643 252.607 358.245 252.075C359.497 251.826 360.796 252.085 361.856 252.794C362.917 253.504 363.653 254.607 363.901 255.859C364.15 257.112 363.891 258.412 363.182 259.473C362.473 260.535 361.372 261.271 360.12 261.52H360.102Z" fill="black"/>
<path opacity="0.25" d="M341.818 278.796C339.305 277.909 333.6 270.855 333.6 270.855C333.6 270.855 342.465 268.832 344.965 269.702C345.575 269.898 346.139 270.214 346.625 270.632C347.111 271.049 347.509 271.56 347.795 272.134C348.081 272.707 348.25 273.332 348.291 273.972C348.333 274.612 348.246 275.253 348.037 275.859C347.827 276.465 347.499 277.023 347.071 277.5C346.643 277.977 346.124 278.363 345.545 278.637C344.965 278.911 344.337 279.066 343.697 279.093C343.057 279.12 342.418 279.02 341.818 278.796Z" fill="black"/>
<path opacity="0.25" d="M325.039 288.753C322.419 288.309 315.602 282.315 315.602 282.315C315.602 282.315 323.984 278.819 326.604 279.254C327.232 279.352 327.834 279.573 328.376 279.905C328.918 280.237 329.389 280.673 329.761 281.188C330.134 281.703 330.401 282.287 330.547 282.906C330.693 283.525 330.714 284.166 330.611 284.794C330.508 285.421 330.281 286.022 329.944 286.561C329.608 287.101 329.168 287.568 328.65 287.936C328.131 288.304 327.546 288.566 326.926 288.706C326.306 288.846 325.665 288.862 325.039 288.753Z" fill="black"/>
<path opacity="0.25" d="M341.6 251.924C341.6 254.586 346.405 262.293 346.405 262.293C346.405 262.293 351.219 254.586 351.219 251.929C351.219 250.652 350.712 249.428 349.81 248.525C348.908 247.622 347.685 247.115 346.409 247.115C345.134 247.115 343.91 247.622 343.008 248.525C342.106 249.428 341.6 250.652 341.6 251.929V251.924Z" fill="black"/>
<path opacity="0.25" d="M322.126 263.815C322.924 266.352 329.813 272.271 329.813 272.271C329.813 272.271 332.1 263.473 331.307 260.935C330.925 259.717 330.076 258.7 328.945 258.108C327.815 257.517 326.495 257.399 325.278 257.781C324.061 258.163 323.045 259.013 322.454 260.144C321.863 261.276 321.745 262.596 322.126 263.815Z" fill="black"/>
<path opacity="0.25" d="M304.786 277.967C305.141 280.602 310.934 287.603 310.934 287.603C310.934 287.603 314.676 279.32 314.321 276.685C314.151 275.42 313.486 274.273 312.472 273.499C311.457 272.724 310.177 272.385 308.913 272.555C307.649 272.725 306.503 273.39 305.729 274.405C304.955 275.421 304.616 276.702 304.786 277.967Z" fill="black"/>
<path d="M304.95 296.357C304.95 296.357 307.131 273.846 320.128 261.876C325.61 256.888 329.327 250.255 330.722 242.972C331.36 239.508 331.678 235.993 331.671 232.471" stroke="#535461" stroke-width="2" stroke-miterlimit="10"/>
<path d="M339.813 224.892C338.82 227.359 331.48 232.709 331.48 232.709C331.48 232.709 329.901 223.756 330.894 221.294C331.119 220.692 331.462 220.142 331.903 219.675C332.343 219.208 332.873 218.833 333.461 218.575C334.048 218.316 334.681 218.177 335.323 218.167C335.965 218.156 336.602 218.275 337.197 218.515C337.793 218.755 338.334 219.112 338.789 219.565C339.245 220.018 339.605 220.557 339.849 221.152C340.092 221.746 340.215 222.383 340.209 223.025C340.203 223.668 340.068 224.302 339.813 224.892Z" fill="#C3232A"/>
<path d="M341.688 241.525C339.516 243.056 330.446 243.553 330.446 243.553C330.446 243.553 333.992 235.181 336.151 233.651C336.668 233.287 337.251 233.028 337.867 232.89C338.484 232.752 339.121 232.736 339.744 232.845C340.366 232.953 340.961 233.183 341.495 233.521C342.028 233.86 342.49 234.3 342.854 234.817C343.217 235.334 343.475 235.918 343.613 236.535C343.752 237.152 343.767 237.79 343.659 238.413C343.55 239.036 343.321 239.631 342.983 240.165C342.644 240.699 342.204 241.162 341.688 241.525Z" fill="#C3232A"/>
<path d="M331.968 264.738C329.309 264.96 321.241 260.807 321.241 260.807C321.241 260.807 328.515 255.368 331.144 255.142C332.415 255.035 333.677 255.438 334.652 256.262C335.627 257.086 336.234 258.264 336.341 259.536C336.448 260.809 336.046 262.072 335.222 263.047C334.399 264.023 333.222 264.631 331.951 264.738H331.968Z" fill="#C3232A"/>
<path d="M320.659 280.643C318.088 281.309 309.427 278.585 309.427 278.585C309.427 278.585 315.673 271.987 318.244 271.322C318.859 271.149 319.504 271.1 320.138 271.179C320.773 271.258 321.386 271.463 321.94 271.782C322.495 272.101 322.98 272.528 323.368 273.037C323.756 273.546 324.039 274.127 324.2 274.747C324.36 275.367 324.396 276.012 324.304 276.646C324.213 277.279 323.996 277.888 323.666 278.437C323.336 278.986 322.901 279.463 322.384 279.841C321.868 280.219 321.282 280.49 320.659 280.639V280.643Z" fill="#C3232A"/>
<path d="M320.89 240.253C321.963 242.684 329.481 247.795 329.481 247.795C329.481 247.795 330.762 238.798 329.685 236.367C329.153 235.224 328.194 234.336 327.015 233.893C325.836 233.45 324.531 233.488 323.379 233.998C322.227 234.508 321.321 235.45 320.856 236.621C320.391 237.792 320.403 239.1 320.89 240.262V240.253Z" fill="#C3232A"/>
<path d="M307.902 259.023C309.653 261.019 318.351 263.637 318.351 263.637C318.351 263.637 316.883 254.666 315.128 252.67C314.715 252.182 314.209 251.782 313.64 251.493C313.07 251.203 312.449 251.03 311.812 250.984C311.175 250.937 310.536 251.018 309.93 251.221C309.325 251.424 308.766 251.746 308.287 252.168C307.807 252.59 307.416 253.103 307.136 253.678C306.857 254.252 306.695 254.877 306.659 255.515C306.623 256.153 306.715 256.792 306.928 257.394C307.142 257.996 307.473 258.55 307.902 259.023Z" fill="#C3232A"/>
<path d="M297.778 278.996C299.169 281.263 307.299 285.309 307.299 285.309C307.299 285.309 307.366 276.223 305.969 273.956C305.639 273.417 305.205 272.949 304.694 272.578C304.182 272.207 303.603 271.941 302.989 271.794C302.374 271.647 301.737 271.623 301.113 271.722C300.49 271.822 299.892 272.043 299.353 272.374C298.815 272.705 298.348 273.139 297.977 273.651C297.606 274.163 297.34 274.743 297.193 275.358C297.046 275.972 297.022 276.61 297.122 277.234C297.221 277.859 297.443 278.457 297.773 278.996H297.778Z" fill="#C3232A"/>
<path opacity="0.1" d="M166.551 370C195.655 370 219.248 366.042 219.248 361.158C219.248 356.275 195.655 352.316 166.551 352.316C137.448 352.316 113.854 356.275 113.854 361.158C113.854 366.042 137.448 370 166.551 370Z" fill="#C3232A"/>
<path opacity="0.1" d="M270.273 302.123C299.376 302.123 322.969 298.165 322.969 293.281C322.969 288.398 299.376 284.439 270.273 284.439C241.169 284.439 217.576 288.398 217.576 293.281C217.576 298.165 241.169 302.123 270.273 302.123Z" fill="#C3232A"/>
<path d="M273.77 176.588L273.722 178.314L270.725 284.135H265.689L268.159 178.314L268.207 176.322L273.77 176.588Z" fill="#B77B7F"/>
<path d="M302.924 266.233L299.152 266.224L243.104 266.105L240.116 266.1L241.708 261.193H302.525L302.924 266.233Z" fill="#DDA2A6"/>
<path opacity="0.1" d="M273.77 176.588L273.721 178.314H268.158L268.207 176.322L273.77 176.588Z" fill="black"/>
<path d="M275.894 174.002H266.554V177.52H275.894V174.002Z" fill="#B77B7F"/>
<path opacity="0.1" d="M243.6 261.193L243.104 266.105L240.116 266.1L241.708 261.193H243.6Z" fill="black"/>
<path d="M251.646 173.936L251.491 175.462L239.057 298.194L233.361 297.923L246.465 175.462L246.611 174.069L251.646 173.936Z" fill="#DDA2A6"/>
<path opacity="0.1" d="M302.925 266.233L299.152 266.224L298.643 261.193H302.526L302.925 266.233Z" fill="black"/>
<path d="M308.887 297.923L303.186 298.194L290.757 175.462L290.602 173.936L295.633 174.069L295.779 175.462L308.887 297.923Z" fill="#DDA2A6"/>
<path d="M333.13 52.9297H207.523V173.47H333.13V52.9297Z" fill="white"/>
<path d="M272.777 12.6143V41.7225H267.879V12.6143C267.865 12.2837 267.918 11.9536 268.035 11.6439C268.152 11.3343 268.33 11.0515 268.558 10.8125C268.787 10.5736 269.062 10.3834 269.366 10.2535C269.67 10.1236 269.998 10.0566 270.328 10.0566C270.659 10.0566 270.986 10.1236 271.29 10.2535C271.595 10.3834 271.869 10.5736 272.098 10.8125C272.327 11.0515 272.505 11.3343 272.622 11.6439C272.738 11.9536 272.791 12.2837 272.777 12.6143Z" fill="#DDA2A6"/>
<path opacity="0.1" d="M272.778 39.0723H267.875V41.7209H272.778V39.0723Z" fill="black"/>
<path d="M274.701 41.0606V50.6702H265.981V41.0606C265.981 40.9037 266.011 40.7483 266.071 40.6032C266.131 40.4582 266.219 40.3264 266.329 40.2154C266.44 40.1045 266.572 40.0166 266.717 39.9568C266.862 39.8971 267.017 39.8666 267.174 39.8672H273.517C273.832 39.8695 274.133 39.9963 274.355 40.2199C274.576 40.4434 274.701 40.7456 274.701 41.0606Z" fill="#DDA2A6"/>
<path opacity="0.1" d="M270.327 47.8242C271.35 47.8242 272.179 46.9939 272.179 45.9697C272.179 44.9455 271.35 44.1152 270.327 44.1152C269.303 44.1152 268.474 44.9455 268.474 45.9697C268.474 46.9939 269.303 47.8242 270.327 47.8242Z" fill="black"/>
<path d="M270.327 47.4238C271.35 47.4238 272.179 46.5935 272.179 45.5693C272.179 44.5451 271.35 43.7148 270.327 43.7148C269.303 43.7148 268.474 44.5451 268.474 45.5693C268.474 46.5935 269.303 47.4238 270.327 47.4238Z" fill="#B77B7F"/>
<path opacity="0.1" d="M274.701 49.4805H265.955V50.6739H274.701V49.4805Z" fill="black"/>
<path opacity="0.1" d="M278.278 51.0762H262.378V53.7292H278.278V51.0762Z" fill="black"/>
<path d="M278.278 50.2754H262.378V52.9284H278.278V50.2754Z" fill="#DDA2A6"/>
<path opacity="0.1" d="M238.162 170.363H304.941C305.705 170.363 306.438 170.667 306.978 171.208C307.519 171.749 307.822 172.482 307.822 173.247V173.877H235.28V173.247C235.28 172.482 235.584 171.749 236.124 171.208C236.665 170.667 237.397 170.363 238.162 170.363Z" fill="black"/>
<path opacity="0.1" d="M246.61 174.069L251.646 173.936L251.491 175.462H246.464L246.61 174.069Z" fill="black"/>
<path opacity="0.1" d="M275.894 174.002H266.554V175.462H275.894V174.002Z" fill="black"/>
<path opacity="0.1" d="M295.779 175.462H290.757L290.602 173.936L295.633 174.069L295.779 175.462Z" fill="black"/>
<path d="M238.162 171.15H304.941C305.705 171.15 306.438 171.454 306.978 171.995C307.519 172.536 307.822 173.269 307.822 174.034V174.664H235.28V174.034C235.28 173.269 235.584 172.536 236.124 171.995C236.665 171.454 237.397 171.15 238.162 171.15Z" fill="#DDA2A6"/>
<path d="M223.521 115.187C222.515 114.655 211.553 106.367 211.553 106.367L193.862 95.1385C193.862 95.1385 193.769 94.8723 193.6 94.4153C198.454 88.9007 197.394 80.8972 192.456 75.2717C186.472 68.4483 159.432 53.7589 151.285 66.3232C150.146 68.0978 150.106 70.112 149.809 72.0641C149.113 76.6204 146.87 81.0348 143.35 84.7526C140.638 87.623 137.078 90.2672 135.518 93.5147C135.518 93.4748 135.487 93.4349 135.473 93.3905C135.097 94.0865 134.823 94.8338 134.662 95.6088C133.886 99.5706 136.546 103.368 137.96 107.224C138.435 108.529 138.779 109.879 138.989 111.252C139.024 110.977 139.055 110.706 139.086 110.431C139.431 112.387 139.548 114.376 139.436 116.358C129.618 118.359 129.613 135.169 129.613 135.169C129.613 135.169 128.403 141.851 128.607 144.26C128.811 146.669 128.807 151.877 128.807 153.133C128.807 154.388 127.596 162.219 127.477 163.159C127.478 163.173 127.478 163.186 127.477 163.199C127.299 164.229 125.46 169.189 129.906 170.298C130.216 170.378 130.544 170.444 130.886 170.506C131.076 174.521 131.422 182.929 131.116 184.801C131.116 184.801 132.734 196.096 134.077 198.967C134.926 200.65 135.92 202.256 137.047 203.767C136.949 204.455 136.718 205.117 136.364 205.715C135.677 206.704 136.032 207.516 137.18 207.866C137.14 208.208 137.096 208.594 137.047 209.029C136.555 213.385 135.819 222.046 137.069 226.433C138.785 232.449 138.887 234.455 138.887 234.455C138.887 234.455 138.887 236.256 139.596 237.258C140.305 238.261 141.613 247.587 141.613 249.091C141.613 250.595 145.044 264.126 144.033 267.334C143.022 270.541 143.834 275.053 143.834 275.053C143.834 275.053 143.226 282.972 142.504 284.676C141.781 286.38 141.493 313.846 142.601 320.963C143.709 328.079 144.419 333.993 144.419 333.993C144.419 333.993 143.714 340.51 144.317 341.411C144.92 342.311 146.032 347.728 145.225 348.025C144.419 348.323 144.015 350.532 144.015 350.532C144.442 351.181 144.902 351.808 145.394 352.409C145.083 352.3 144.779 352.171 144.485 352.023C144.804 352.466 145.283 353.096 145.873 353.797L145.319 361.007C145.295 361.288 145.371 361.568 145.533 361.799C145.695 362.03 145.933 362.197 146.205 362.271C147.975 362.753 149.842 362.745 151.608 362.248C153.374 361.751 154.972 360.784 156.232 359.449C161.276 354.339 162.992 355.04 163.901 351.934C163.998 351.601 164.082 351.273 164.153 350.962C164.805 348.194 161.857 346.135 159.512 347.316C159.836 345.124 160.088 342.635 159.845 341.229C159.339 338.323 159.441 330.705 159.441 330.705L158.736 294.215C158.736 294.215 160.044 286.996 161.56 284.193C163.076 281.389 162.89 271.562 162.89 271.562L164.605 239.281L166.219 223.545C166.219 223.545 167.832 218.133 169.849 224.148C169.849 224.148 168.741 236.274 169.247 239.184C169.752 242.094 170.457 256.225 169.951 259.33C169.446 262.436 167.23 279.481 168.621 283.789C170.013 288.097 171.565 293.318 171.255 295.027C170.944 296.735 169.925 333.718 169.925 333.718C169.925 333.718 172.651 340.816 170.634 343.141C168.617 345.466 170.532 354.676 170.532 354.676C170.532 354.676 170.776 354.849 171.192 355.088L171.135 355.856L170.501 364.148C170.478 364.429 170.555 364.71 170.716 364.942C170.878 365.173 171.115 365.341 171.388 365.417C173.158 365.899 175.025 365.891 176.791 365.394C178.557 364.897 180.155 363.93 181.414 362.595C186.459 357.48 188.174 358.185 189.083 355.075C189.181 354.742 189.265 354.418 189.34 354.103C190.049 351.082 186.459 348.891 184.056 350.865L183.937 350.967C183.811 351.074 183.679 351.173 183.542 351.264C183.478 351.311 183.412 351.354 183.343 351.393C183.848 349.103 184.584 345.182 184.229 343.345C183.724 340.639 184.73 332.422 184.73 332.422C184.73 332.422 187.656 322.595 187.758 318.669L188.564 287.396C188.564 287.396 188.467 274.663 188.87 271.557C189.274 268.452 192.501 241.584 195.728 233.563C198.206 227.423 199.314 211.753 198.658 203.807C198.622 203.417 198.587 203.039 198.543 202.689C202.501 199.765 202.896 194.903 202.896 194.903C202.896 194.903 199.261 187.955 195.763 185.014C192.266 182.072 191.512 177.015 191.636 174.863C191.696 173.552 191.264 172.266 190.426 171.256C190.426 171.256 188.813 166.043 187.736 165.511C187.647 165.466 187.568 165.406 187.501 165.333C186.769 164.548 187.332 162.303 187.332 162.303V162.232C187.461 161.713 188.219 158.35 187.993 157.49C187.722 156.558 188.126 152.144 188.126 152.144C188.126 152.144 190.683 144.526 190.28 138.51C189.877 132.494 195.528 133.031 195.528 133.031L212.98 132.849H214.966C215.666 132.254 216.306 131.591 216.876 130.87C220.201 130.475 226.925 129.22 227.679 125.547C228.703 120.671 224.532 115.724 223.521 115.187ZM142.668 170.804L142.787 167.747C143.2 168.102 143.475 168.328 143.475 168.328C143.697 169.128 143.708 169.972 143.506 170.777C143.397 171.155 143.205 171.504 142.943 171.797C142.682 172.091 142.357 172.321 141.994 172.472C141.91 172.508 141.828 172.551 141.75 172.6L141.582 170.875L142.668 170.804ZM205.967 117.122C205.227 116.789 202.736 116.855 201.455 116.855C200.174 116.855 198.095 115.786 198.095 115.786C197.652 114.921 195.2 114.406 193.019 114.114C191.362 110.023 189.03 106.035 188.715 101.771C188.715 101.616 188.715 101.461 188.693 101.305L188.946 101.749C188.946 101.749 199.106 108.235 200.249 110.178C201.136 111.66 205.404 114.97 207.381 116.452C207.109 116.807 206.728 117.063 206.295 117.179C206.183 117.191 206.069 117.171 205.967 117.122Z" fill="url(#paint0_linear)"/>
<path d="M189.188 354.13C189.112 354.44 189.033 354.764 188.935 355.092C188.048 358.198 186.351 357.479 181.399 362.55C180.166 363.874 178.594 364.835 176.854 365.329C175.114 365.823 173.272 365.832 171.528 365.354C171.255 365.282 171.017 365.116 170.855 364.886C170.693 364.655 170.617 364.375 170.641 364.094L171.266 355.869L171.563 351.911C171.563 351.911 179.471 354.13 183.496 351.313C183.631 351.22 183.761 351.121 183.886 351.015C183.917 350.987 183.947 350.958 183.975 350.927C184.494 350.496 185.135 350.239 185.808 350.192C186.481 350.144 187.151 350.308 187.726 350.662C188.301 351.015 188.751 351.539 189.013 352.161C189.275 352.783 189.336 353.471 189.188 354.13Z" fill="#67647E"/>
<path d="M164.364 351.024C164.289 351.335 164.209 351.659 164.112 351.987C163.225 355.093 161.527 354.374 156.576 359.445C155.342 360.768 153.77 361.729 152.031 362.223C150.291 362.718 148.449 362.726 146.704 362.249C146.432 362.177 146.194 362.011 146.032 361.78C145.87 361.55 145.794 361.27 145.818 360.989L146.443 352.763L146.74 348.806C146.74 348.806 154.648 351.024 158.673 348.207C158.808 348.115 158.938 348.015 159.063 347.91C159.094 347.882 159.124 347.852 159.152 347.821C159.671 347.391 160.312 347.134 160.985 347.086C161.657 347.039 162.328 347.203 162.903 347.556C163.478 347.909 163.928 348.434 164.19 349.055C164.452 349.677 164.513 350.366 164.364 351.024Z" fill="#67647E"/>
<path opacity="0.1" d="M156.195 352.257L156.514 356.534C151.975 361.073 146.572 354.316 144.989 352.098C149.152 354.245 156.195 352.257 156.195 352.257Z" fill="black"/>
<path opacity="0.1" d="M182.877 353.999L183.471 353.604C179.326 359.912 173.169 357.002 171.25 355.871L171.547 351.913C171.547 351.913 179.455 354.132 183.48 351.314C183.165 352.858 182.877 353.999 182.877 353.999Z" fill="black"/>
<path d="M195.501 234.553C192.318 242.508 189.14 269.158 188.741 272.264C188.342 275.369 188.444 287.978 188.444 287.978L187.646 318.985C187.544 322.867 184.663 332.614 184.663 332.614C184.663 332.614 183.67 340.768 184.167 343.452C184.663 346.137 182.877 353.213 182.877 353.213L183.471 352.813C178.501 360.356 170.651 354.703 170.651 354.703C170.651 354.703 168.763 345.555 170.753 343.266C172.743 340.977 170.057 333.918 170.057 333.918C170.057 333.918 171.05 297.219 171.347 295.529C171.644 293.839 170.155 288.666 168.763 284.389C167.371 280.112 169.561 263.204 170.057 260.121C170.554 257.038 169.858 243.014 169.361 240.13C168.865 237.246 169.955 225.21 169.955 225.21C167.969 219.243 166.378 224.615 166.378 224.615L164.787 240.228L163.098 272.255C163.098 272.255 163.297 282.015 161.808 284.788C160.318 287.561 159.024 294.73 159.024 294.73L159.72 330.937C159.72 330.937 159.622 338.479 160.119 341.376C160.615 344.273 159.024 351.722 159.024 351.722C153.461 364.841 144.524 350.617 144.524 350.617C144.524 350.617 144.923 348.43 145.717 348.133C146.51 347.836 145.42 342.463 144.83 341.567C144.241 340.671 144.928 334.207 144.928 334.207C144.928 334.207 144.232 328.342 143.155 321.279C142.078 314.216 142.361 286.966 143.057 285.276C143.753 283.586 144.347 275.729 144.347 275.729C144.347 275.729 143.554 271.252 144.547 268.067C145.54 264.881 142.162 251.461 142.162 249.966C142.162 248.471 140.872 239.225 140.176 238.231C139.48 237.237 139.48 235.445 139.48 235.445C139.48 235.445 139.382 233.457 137.707 227.49C136.475 223.134 137.202 214.544 137.685 210.219C137.858 208.617 138.008 207.597 138.008 207.597C138.008 207.597 195 198.347 197.274 200.436C197.806 200.929 198.161 202.619 198.369 205.028C199.047 212.907 197.93 228.48 195.501 234.553Z" fill="#444053"/>
<path opacity="0.1" d="M173.931 279.273C174.197 279.273 180.491 279.805 182.796 279.339C185.101 278.873 173.931 279.273 173.931 279.273Z" fill="black"/>
<path opacity="0.1" d="M174.396 282.986C174.396 282.986 183.089 284.512 183.532 283.718C183.976 282.923 174.396 282.986 174.396 282.986Z" fill="black"/>
<path opacity="0.1" d="M147.831 281.393C147.831 281.393 152.335 281.592 154.786 282.724C157.237 283.855 147.831 281.393 147.831 281.393Z" fill="black"/>
<path d="M131.465 169.871C131.465 169.871 132.192 183.727 131.797 186.18C131.797 186.18 133.384 197.387 134.71 200.235C136.035 203.083 138.885 206.668 138.885 206.668L142.795 179.161L141.864 169.738L131.465 169.871Z" fill="#EFB7B9"/>
<path d="M172.539 106.749C180.99 106.749 187.841 99.8923 187.841 91.4341C187.841 82.9759 180.99 76.1191 172.539 76.1191C164.088 76.1191 157.237 82.9759 157.237 91.4341C157.237 99.8923 164.088 106.749 172.539 106.749Z" fill="#EFB7B9"/>
<path d="M164.591 98.5901C164.591 98.5901 159.822 107.942 155.052 112.317C150.282 116.691 183.67 121.664 184.463 121.664C185.257 121.664 178.501 101.776 179.694 99.3753C180.886 96.9752 164.591 98.5901 164.591 98.5901Z" fill="#EFB7B9"/>
<path opacity="0.1" d="M198.378 205.028C197.629 205.601 196.802 206.064 195.922 206.403C189.832 208.79 183.205 212.104 178.701 210.782C174.197 209.46 164.658 210.782 164.658 210.782C164.658 210.782 145.442 209.19 141.608 210.117C139.861 210.538 138.505 210.521 137.618 210.219C137.791 208.617 137.942 207.597 137.942 207.597C137.942 207.597 195 198.347 197.274 200.436C197.815 200.929 198.161 202.619 198.378 205.028Z" fill="black"/>
<path d="M202.548 196.19C202.548 196.19 202.021 202.823 195.921 205.21C189.822 207.597 183.204 210.911 178.7 209.589C174.196 208.266 164.657 209.589 164.657 209.589C164.657 209.589 145.441 207.996 141.607 208.923C137.773 209.85 135.773 208.661 136.966 206.936C138.158 205.21 138.03 199.509 138.03 197.122C138.03 194.735 136.7 185.055 137.892 183.329C139.085 181.603 140.144 174.975 142.529 173.91C142.887 173.759 143.207 173.53 143.465 173.239C143.722 172.948 143.912 172.602 144.018 172.229C144.215 171.43 144.205 170.595 143.987 169.802C143.987 169.802 143.584 169.469 143.03 168.977C141.625 167.721 139.249 165.392 140.011 164.629C141.071 163.564 140.011 156.67 140.011 156.67C140.011 156.67 137.493 151.368 138.424 149.38C139.355 147.393 130.339 136.914 130.339 136.914C130.339 136.914 130.339 118.884 141.204 118.085C141.204 118.085 148.89 118.351 149.816 114.904C150.743 111.457 156.838 109.465 156.838 109.465L170.752 112.517C170.752 112.517 183.071 115.179 185.327 113.578C187.583 111.976 189.317 115.698 189.317 115.698C189.317 115.698 196.999 116.097 197.792 117.69C198.585 119.283 195.279 134.793 195.279 134.793C195.279 134.793 189.711 134.265 190.11 140.232C190.509 146.199 187.965 153.759 187.965 153.759C187.965 153.759 187.566 158.134 187.832 159.061C188.08 159.917 187.309 163.253 187.184 163.768V163.835C187.184 163.835 186.63 166.053 187.348 166.843C187.415 166.914 187.493 166.974 187.579 167.02C188.643 167.548 190.239 172.721 190.239 172.721C191.066 173.725 191.491 175.001 191.431 176.301C191.302 178.426 192.096 183.462 195.54 186.381C198.984 189.3 202.548 196.19 202.548 196.19Z" fill="#A36468"/>
<path d="M143.456 165.478V166.042L143.216 172.253C143.216 172.253 135.065 172.914 130.627 171.809C126.19 170.704 128.056 165.775 128.234 164.755C128.235 164.742 128.235 164.728 128.234 164.715C128.362 163.783 129.564 156.028 129.564 154.768C129.564 153.508 129.564 148.335 129.364 145.949C129.165 143.562 130.339 136.911 130.339 136.911L131.199 135.855L140.535 139.436L143.456 165.478Z" fill="#A36468"/>
<path opacity="0.1" d="M143.434 166.056L143.195 172.267C143.195 172.267 135.043 172.928 130.606 171.824C126.169 170.719 128.035 165.79 128.212 164.77L143.434 166.056Z" fill="black"/>
<path opacity="0.1" d="M144.019 172.232C144.216 171.434 144.205 170.599 143.988 169.806C143.988 169.806 143.584 169.473 143.03 168.981C150.047 168 177.836 164.185 187.194 163.768V163.834C187.194 163.834 186.64 166.052 187.358 166.842L144.019 172.232Z" fill="black"/>
<path opacity="0.1" d="M188.239 177.016C188.239 177.016 189.964 186.776 183.536 190.21C183.532 190.228 187.18 185.387 188.239 177.016Z" fill="black"/>
<path opacity="0.1" d="M146.173 190.488C146.173 190.488 161.687 187.827 164.724 189.894C167.76 191.961 146.173 190.488 146.173 190.488Z" fill="black"/>
<path opacity="0.1" d="M182.876 130.084C182.876 130.084 180.492 139.898 182.278 142.151C184.064 144.405 182.876 130.084 182.876 130.084Z" fill="black"/>
<path opacity="0.1" d="M137.96 122.062C137.96 122.062 140.145 125.709 138.82 129.489C137.495 133.269 137.96 122.062 137.96 122.062Z" fill="black"/>
<path opacity="0.1" d="M133.442 154.025C133.442 154.025 136.226 155.68 135.3 158.267C134.373 160.853 133.442 154.025 133.442 154.025Z" fill="black"/>
<path opacity="0.1" d="M133.189 146.465C133.189 146.465 135.769 147.858 136.102 149.912C136.434 151.966 133.189 146.465 133.189 146.465Z" fill="black"/>
<path opacity="0.1" d="M171.479 225.765C171.479 225.765 187.712 227.425 190.957 223.578C190.957 223.6 176.316 226.497 171.479 225.765Z" fill="black"/>
<path opacity="0.1" d="M143.456 224.836C143.456 224.836 160.881 228.949 164.325 225.697C164.325 225.697 149.352 226.824 143.456 224.836Z" fill="black"/>
<path opacity="0.1" d="M172.738 231.141C172.738 231.141 180.026 231.141 183.404 231.34C186.781 231.54 172.738 231.141 172.738 231.141Z" fill="black"/>
<path opacity="0.1" d="M144.648 234.244C144.648 234.244 148.226 238.29 152.268 237.563C156.311 236.835 144.648 234.244 144.648 234.244Z" fill="black"/>
<path d="M151.675 68.6088C150.554 70.3523 150.514 72.3709 150.221 74.3053C149.538 78.8261 147.327 83.205 143.865 86.8962C140.686 90.2768 136.329 93.3424 135.504 97.4729C134.724 101.395 137.371 105.17 138.758 109.008C142.415 119.074 137.309 129.633 135.819 140.024C135.407 142.894 135.903 146.563 139.436 147.517C140.54 147.819 141.803 147.779 142.796 148.258C144.126 148.897 144.534 150.223 144.778 151.417C145.667 155.686 145.974 160.055 145.691 164.407C145.531 166.847 145.354 169.655 147.659 171.332C148.705 172.1 150.115 172.49 151.476 172.858C155.106 173.839 159.8 174.633 162.247 172.331C163.276 171.368 163.661 170.01 164.942 169.247C166.862 168.107 169.583 168.879 171.999 168.999C176.959 169.247 181.516 166.337 183.471 162.827C185.426 159.318 185.244 155.285 184.535 151.501C183.826 147.717 182.558 143.959 182.469 140.117C182.438 138.786 182.558 137.433 183.32 136.253C184.797 133.968 188.232 132.93 190.581 131.133C194.983 127.761 194.97 122.238 193.37 117.615C191.769 112.992 188.897 108.56 188.542 103.782C188.384 102.627 188.613 101.452 189.194 100.441C189.823 99.4693 190.923 98.7417 191.854 97.9387C198.277 92.5084 197.519 83.5909 192.208 77.4863C186.33 70.7205 159.698 56.1465 151.675 68.6088Z" fill="#E3787D"/>
<g opacity="0.1">
<path opacity="0.1" d="M139.574 113.185C140.075 109.152 139.982 105.155 138.559 101.228C137.858 99.303 136.843 97.3908 136.103 95.4609C135.733 96.1587 135.465 96.9056 135.305 97.6792C134.525 101.601 137.171 105.377 138.559 109.214C139.026 110.501 139.366 111.831 139.574 113.185Z" fill="black"/>
<path opacity="0.1" d="M145.491 156.627C145.774 152.276 145.468 147.907 144.583 143.637C144.334 142.444 143.927 141.122 142.597 140.483C141.604 140.004 140.341 140.039 139.237 139.742C138.559 139.579 137.927 139.264 137.389 138.819C136.851 138.375 136.422 137.813 136.134 137.178C135.93 138.189 135.753 139.196 135.606 140.208C135.194 143.078 135.691 146.747 139.224 147.701C140.327 147.998 141.591 147.959 142.584 148.438C143.913 149.077 144.321 150.403 144.569 151.596C144.976 153.576 145.26 155.58 145.421 157.595C145.452 157.266 145.469 156.947 145.491 156.627Z" fill="black"/>
<path opacity="0.1" d="M183.276 155.054C181.317 158.576 176.76 161.473 171.8 161.225C169.384 161.101 166.662 160.338 164.747 161.473C163.466 162.232 163.076 163.594 162.048 164.557C159.601 166.842 154.907 166.065 151.276 165.085C149.915 164.712 148.51 164.326 147.459 163.559C146.458 162.822 145.783 161.724 145.576 160.497C145.602 161.859 145.576 163.226 145.491 164.588C145.332 167.028 145.154 169.836 147.459 171.518C148.51 172.281 149.915 172.671 151.276 173.04C154.907 174.02 159.601 174.814 162.048 172.512C163.076 171.549 163.466 170.191 164.747 169.406C166.662 168.266 169.384 169.038 171.8 169.158C176.76 169.406 181.317 166.496 183.276 162.986C185.156 159.597 185.071 155.764 184.415 152.104C184.168 153.133 183.785 154.125 183.276 155.054Z" fill="black"/>
<path opacity="0.1" d="M191.673 90.1813C190.724 90.9799 189.625 91.7119 189.013 92.6835C188.432 93.6942 188.203 94.8692 188.361 96.0242C188.49 97.476 188.797 98.9065 189.274 100.283C190.013 99.4953 190.821 98.7766 191.69 98.136C196.034 94.467 197.089 89.2008 195.68 84.2852C194.936 86.5942 193.545 88.6407 191.673 90.1813Z" fill="black"/>
<path opacity="0.1" d="M190.382 123.354C188.037 125.151 184.597 126.193 183.126 128.478C182.359 129.658 182.239 131.02 182.27 132.338C182.324 133.89 182.514 135.433 182.837 136.952C182.921 136.773 183.018 136.599 183.126 136.433C184.597 134.148 188.037 133.11 190.382 131.313C194.402 128.234 194.739 123.363 193.551 119.02C192.949 120.747 191.845 122.256 190.382 123.354Z" fill="black"/>
</g>
<path d="M214.472 132.804C214.472 132.804 225.935 132.209 226.928 127.369C227.921 122.529 223.825 117.609 222.823 117.09C221.822 116.571 211.015 108.336 211.015 108.336L193.594 97.2006C193.594 97.2006 185.247 73.2433 183.399 82.4137C181.55 91.584 188.767 103.762 188.767 103.762C188.767 103.762 198.767 110.195 199.893 112.116C201.019 114.037 207.912 119.077 207.912 119.077L214.472 132.804Z" fill="#EFB7B9"/>
<path d="M220.634 124.979C217.921 131.878 214.406 134.598 214.406 134.598H212.451L195.266 134.775L193.284 129.358L196.068 117.619L197.788 117.69C197.788 117.69 199.845 118.75 201.099 118.75C202.354 118.75 204.814 118.684 205.532 119.012C205.632 119.061 205.745 119.078 205.855 119.061C206.507 118.994 207.185 118.018 207.185 118.018C207.185 118.018 223.352 118.085 220.634 124.979Z" fill="#A36468"/>
<path opacity="0.1" d="M220.635 124.977C217.922 131.876 214.407 134.595 214.407 134.595H212.452C213.472 131.862 215.621 126.254 216.442 124.959C217.244 123.734 210.045 120.687 205.834 119.041C206.486 118.974 207.164 117.998 207.164 117.998C207.164 117.998 223.352 118.082 220.635 124.977Z" fill="black"/>
<path opacity="0.1" d="M40.9491 342.403C51.765 342.403 60.533 340.686 60.533 338.569C60.533 336.452 51.765 334.736 40.9491 334.736C30.1332 334.736 21.3652 336.452 21.3652 338.569C21.3652 340.686 30.1332 342.403 40.9491 342.403Z" fill="#C3232A"/>
<path opacity="0.1" d="M367.402 316.079C375.28 316.079 381.667 314.83 381.667 313.289C381.667 311.747 375.28 310.498 367.402 310.498C359.524 310.498 353.138 311.747 353.138 313.289C353.138 314.83 359.524 316.079 367.402 316.079Z" fill="#C3232A"/>
<path opacity="0.1" d="M429.235 327.388C437.113 327.388 443.5 326.138 443.5 324.597C443.5 323.056 437.113 321.807 429.235 321.807C421.357 321.807 414.971 323.056 414.971 324.597C414.971 326.138 421.357 327.388 429.235 327.388Z" fill="#C3232A"/>
<path opacity="0.1" d="M333.492 350.677C341.37 350.677 347.757 349.428 347.757 347.886C347.757 346.345 341.37 345.096 333.492 345.096C325.614 345.096 319.228 346.345 319.228 347.886C319.228 349.428 325.614 350.677 333.492 350.677Z" fill="#C3232A"/>
<path d="M59.4553 232.166C59.4553 232.166 62.6646 236.367 57.9747 242.703C53.2849 249.038 49.4239 254.389 50.9931 258.342C50.9931 258.342 58.0634 246.571 63.8215 246.407C69.5797 246.243 65.7897 239.247 59.4553 232.166Z" fill="#C3232A"/>
<path opacity="0.1" d="M59.4558 232.166C59.7366 232.576 59.9575 233.024 60.1119 233.497C65.7282 240.103 68.7203 246.265 63.3212 246.421C58.2944 246.563 52.2615 255.564 50.8164 257.836C50.8627 258.012 50.9204 258.186 50.9893 258.355C50.9893 258.355 58.0595 246.585 63.8177 246.421C69.5758 246.256 65.7902 239.247 59.4558 232.166Z" fill="black"/>
<path d="M65.418 237.516C65.418 238.993 65.254 240.178 65.0501 240.178C64.8462 240.178 64.6777 238.98 64.6777 237.516C64.6777 236.052 64.8861 236.735 65.09 236.735C65.2939 236.735 65.418 236.021 65.418 237.516Z" fill="#FFD037"/>
<path d="M67.4664 239.282C66.172 239.987 65.0417 240.418 64.9442 240.236C64.8466 240.054 65.8307 239.349 67.1118 238.63C68.3929 237.911 67.8964 238.439 67.9983 238.63C68.1003 238.821 68.7608 238.572 67.4664 239.282Z" fill="#FFD037"/>
<path d="M42.5185 232.166C42.5185 232.166 39.3092 236.367 43.999 242.703C48.6889 249.038 52.5498 254.389 50.9939 258.342C50.9939 258.342 43.9015 246.571 38.1389 246.407C32.3763 246.243 36.1841 239.247 42.5185 232.166Z" fill="#C3232A"/>
<path opacity="0.1" d="M42.5178 232.166C42.237 232.576 42.0161 233.024 41.8617 233.497C36.2454 240.103 33.2533 246.265 38.6524 246.421C43.6792 246.563 49.7343 255.564 51.1572 257.836C51.1104 258.012 51.0542 258.185 50.9888 258.355C50.9888 258.355 43.8964 246.585 38.1338 246.421C32.3712 246.256 36.1834 239.247 42.5178 232.166Z" fill="black"/>
<path d="M36.5557 237.516C36.5557 238.993 36.7197 240.178 36.9236 240.178C37.1275 240.178 37.2959 238.98 37.2959 237.516C37.2959 236.052 37.0876 236.735 36.8837 236.735C36.6798 236.735 36.5557 236.021 36.5557 237.516Z" fill="#FFD037"/>
<path d="M34.5075 239.282C35.8063 239.987 36.9322 240.418 37.0341 240.236C37.1361 240.054 36.1476 239.349 34.8621 238.63C33.5766 237.911 34.0775 238.439 33.9755 238.63C33.8736 238.821 33.2131 238.572 34.5075 239.282Z" fill="#FFD037"/>
<path opacity="0.1" d="M50.9849 290.452C69.5051 290.452 84.5187 288.146 84.5187 285.301C84.5187 282.456 69.5051 280.15 50.9849 280.15C32.4647 280.15 17.4512 282.456 17.4512 285.301C17.4512 288.146 32.4647 290.452 50.9849 290.452Z" fill="#C3232A"/>
<path d="M68.2458 252.684L68.0862 254.015L67.8602 255.865L67.7671 256.637L67.541 258.492L67.4435 259.264L67.2174 261.114L64.6553 282.16C64.4248 284.042 61.3573 285.506 57.6515 285.506H44.3444C40.6387 285.506 37.5756 284.042 37.3451 282.16L34.7786 261.109L34.5525 259.259L34.4594 258.487L34.2289 256.633L34.1358 255.861L33.9097 254.011L33.7502 252.68C33.6216 251.615 35.2795 250.719 37.3762 250.719H64.6464C66.7165 250.723 68.3788 251.619 68.2458 252.684Z" fill="#65617D"/>
<path d="M68.0819 253.992L67.8603 255.847H34.1093L33.8877 253.992H68.0819Z" fill="#9D9CB5"/>
<path d="M67.762 256.619L67.5403 258.469H34.4321L34.2061 256.619H67.762Z" fill="#9D9CB5"/>
<path d="M67.443 259.242L67.2169 261.092H34.7515L34.5254 259.242H67.443Z" fill="#9D9CB5"/>
<path opacity="0.1" d="M80.4749 69.2217C88.1865 69.2217 94.438 62.9648 94.438 55.2466C94.438 47.5283 88.1865 41.2715 80.4749 41.2715C72.7632 41.2715 66.5117 47.5283 66.5117 55.2466C66.5117 62.9648 72.7632 69.2217 80.4749 69.2217Z" fill="#C3232A"/>
<path opacity="0.1" d="M51.2191 30.6228C55.9929 30.6228 59.8629 26.7495 59.8629 21.9716C59.8629 17.1936 55.9929 13.3203 51.2191 13.3203C46.4452 13.3203 42.5752 17.1936 42.5752 21.9716C42.5752 26.7495 46.4452 30.6228 51.2191 30.6228Z" fill="#C3232A"/>
<path opacity="0.1" d="M6.00973 46.595C8.9475 46.595 11.329 44.2114 11.329 41.2711C11.329 38.3308 8.9475 35.9473 6.00973 35.9473C3.07196 35.9473 0.69043 38.3308 0.69043 41.2711C0.69043 44.2114 3.07196 46.595 6.00973 46.595Z" fill="#C3232A"/>
<defs>
<linearGradient id="paint0_linear" x1="177.389" y1="365.754" x2="177.389" y2="61.4075" gradientUnits="userSpaceOnUse">
<stop stop-color="#808080" stop-opacity="0.25"/>
<stop offset="0.54" stop-color="#808080" stop-opacity="0.12"/>
<stop offset="1" stop-color="#808080" stop-opacity="0.1"/>
</linearGradient>
</defs>
</svg>
